<?xml version="1.0" standalone="no"?>
<!DOCTYPE svg PUBLIC "-//W3C//DTD SVG 20010904//EN"
 "http://www.w3.org/TR/2001/REC-SVG-20010904/DTD/svg10.dtd">
<svg version="1.0" xmlns="http://www.w3.org/2000/svg"
 width="426.000000pt" height="426.000000pt" viewBox="0 0 426.000000 426.000000"
 preserveAspectRatio="xMidYMid meet">
<metadata>
Created by potrace 1.14, written by Peter Selinger 2001-2017
</metadata>
<g transform="translate(0.000000,426.000000) scale(0.100000,-0.100000)"
fill="#000000" stroke="none">
<path d="M1981 4110 c-31 -26 -17 -26 16 0 14 11 22 20 17 20 -5 -1 -20 -10
-33 -20z"/>
<path d="M2393 3935 c82 -80 152 -145 158 -145 5 0 9 -4 9 -9 0 -8 36 -47 92
-98 7 -7 18 -18 24 -25 6 -7 55 -55 107 -106 97 -93 98 -95 25 -75 -10 2 -18
12 -18 20 0 14 -4 13 -23 -5 -13 -12 -30 -22 -39 -22 -17 0 -40 23 -33 33 3 4
2 5 -1 3 -3 -3 -15 3 -26 14 -21 20 -38 20 -60 2 -12 -9 -19 -7 -37 9 -21 20
-23 20 -57 4 -30 -14 -43 -15 -82 -6 -26 7 -57 13 -69 15 -11 3 -34 11 -51 20
-28 14 -32 14 -81 -11 -28 -15 -50 -32 -47 -38 2 -7 -1 -12 -7 -12 -7 0 -24
-3 -38 -6 -14 -3 -32 -1 -39 3 -17 11 -40 2 -40 -16 0 -8 -3 -14 -7 -15 -5 0
-19 -3 -33 -5 -14 -2 -47 -6 -75 -9 -27 -2 -63 -6 -80 -9 -16 -3 -37 -1 -45 5
-13 9 -13 10 0 6 8 -2 26 4 39 14 13 10 27 16 31 14 5 -3 12 0 16 6 5 9 -4 10
-34 5 -34 -5 -42 -3 -42 9 0 11 -5 12 -25 5 -14 -5 -25 -8 -25 -5 0 2 -17 -3
-37 -11 -20 -9 -46 -18 -57 -20 -39 -7 -96 -37 -89 -46 3 -6 -3 -7 -16 -3 -12
4 -21 2 -21 -4 0 -9 -35 -23 -60 -26 -12 -1 -86 -50 -93 -61 -4 -7 -21 -15
-37 -19 -17 -4 -30 -10 -30 -15 0 -5 -8 -11 -17 -14 -10 -3 -36 -23 -59 -44
-22 -21 -48 -41 -57 -45 -9 -3 -17 -11 -17 -17 0 -5 -4 -10 -9 -10 -21 0 -177
-170 -230 -250 -79 -120 -76 -116 -122 -210 -52 -108 -81 -180 -71 -180 4 0 2
-4 -4 -8 -10 -6 -46 -140 -60 -222 -21 -125 -20 -367 2 -460 3 -14 8 -34 10
-45 21 -119 42 -195 55 -195 6 0 8 -4 5 -8 -2 -4 2 -23 11 -42 43 -100 64
-140 72 -140 7 0 20 -26 25 -52 0 -4 9 -17 18 -28 10 -11 18 -25 18 -30 0 -6
5 -10 10 -10 6 0 10 -5 10 -11 0 -14 25 -39 39 -39 10 0 15 -14 12 -33 -1 -4
7 -10 16 -14 21 -8 34 -24 27 -34 -2 -4 -26 16 -52 44 -26 29 -50 53 -53 55
-4 2 -41 36 -84 77 -43 41 -82 75 -87 75 -5 0 -6 4 -3 10 3 5 2 10 -4 10 -5 0
-56 46 -114 103 -155 152 -309 297 -332 313 -11 8 -16 14 -12 14 5 0 2 7 -7
15 -8 8 -17 15 -19 15 -3 0 -41 35 -85 78 -91 89 -91 86 -16 160 24 23 44 44
44 46 0 1 33 37 72 78 40 41 123 129 183 194 61 65 130 139 155 164 25 26 95
100 155 165 61 65 141 150 178 188 37 39 77 82 88 96 18 23 152 168 249 271
19 20 69 74 110 120 151 167 176 194 210 231 139 146 260 281 260 291 0 3 -15
-8 -33 -25 -19 -18 -32 -35 -30 -39 2 -5 -4 -8 -13 -8 -10 0 -14 -3 -11 -7 4
-3 -8 -17 -25 -30 -18 -12 -28 -23 -23 -23 4 0 -3 -9 -16 -21 -56 -48 -75 -67
-94 -92 -11 -15 -26 -27 -34 -27 -8 0 -12 -3 -9 -6 3 -3 -63 -76 -147 -162
-215 -219 -366 -375 -588 -606 -106 -109 -246 -254 -312 -321 -131 -134 -345
-358 -345 -362 0 -1 -15 -18 -33 -37 -51 -54 -121 -136 -129 -151 -5 -9 17
-39 67 -90 41 -42 75 -75 75 -73 0 3 51 -45 112 -105 62 -60 123 -116 135
-124 13 -9 23 -22 23 -29 0 -8 4 -14 10 -14 5 0 31 -21 59 -47 71 -70 258
-244 314 -295 27 -23 80 -73 118 -110 38 -36 69 -65 69 -64 0 3 83 -74 177
-164 28 -28 56 -50 61 -50 6 0 14 -9 17 -20 3 -11 10 -20 15 -20 5 0 29 -19
53 -43 84 -79 151 -137 159 -137 4 0 8 -7 8 -15 0 -8 3 -15 8 -15 7 0 47 -34
143 -123 131 -120 255 -234 272 -250 10 -10 21 -16 24 -13 5 5 -86 96 -508
506 -260 253 -299 292 -299 304 0 9 26 -9 51 -36 9 -10 21 -18 27 -18 6 0 12
-3 14 -8 5 -12 105 -82 117 -82 6 0 11 -4 11 -9 0 -9 166 -95 172 -90 2 2 17
-4 33 -13 49 -26 105 -48 120 -48 7 0 15 -4 17 -10 2 -5 17 -11 33 -14 17 -2
48 -8 70 -15 138 -40 367 -47 548 -16 61 10 73 13 162 38 74 21 298 122 361
162 30 19 56 35 59 35 13 0 82 55 91 73 7 12 27 29 45 39 19 10 29 18 24 18
-13 0 17 20 31 20 6 0 -15 -26 -45 -59 -31 -32 -78 -84 -106 -115 -27 -32 -77
-86 -110 -121 -33 -35 -89 -96 -125 -135 -36 -40 -87 -96 -115 -125 -27 -30
-75 -82 -105 -116 -30 -34 -88 -95 -127 -137 -104 -106 -91 -111 15 -5 49 48
88 89 87 90 -1 1 80 86 179 188 100 102 226 233 281 291 55 57 161 167 235
243 74 76 205 211 290 301 85 89 190 198 233 241 42 44 77 81 77 83 0 3 241
252 318 328 9 10 21 21 25 25 57 57 127 139 127 148 0 14 -81 96 -254 260 -64
61 -148 139 -186 175 -37 36 -107 101 -154 145 -48 44 -124 116 -171 161 -47
45 -85 79 -85 77 0 -3 -15 10 -34 29 -27 26 -32 36 -22 47 6 8 7 12 1 9 -19
-10 -45 7 -136 92 -90 84 -139 145 -139 175 0 8 -4 15 -9 15 -5 0 -17 7 -26
16 -15 15 -15 14 -9 -12 l7 -29 -39 34 c-21 18 -49 44 -60 57 -12 13 -24 24
-27 24 -2 0 -42 35 -88 78 -45 42 -98 91 -116 107 -19 17 -53 49 -77 73 -23
23 -46 42 -49 42 -4 0 -22 15 -40 33 -18 17 -71 67 -118 110 -46 43 -100 94
-120 113 -21 19 -41 34 -45 34 -5 0 58 -65 139 -145z m-628 -495 c-3 -5 -12
-10 -18 -10 -7 0 -6 4 3 10 19 12 23 12 15 0z m210 -31 c-4 -5 -12 -8 -18 -6
-7 2 -30 -4 -52 -14 -22 -10 -51 -20 -65 -22 -14 -3 -43 -12 -64 -21 -21 -9
-46 -16 -55 -15 -13 0 -14 1 -1 6 8 3 26 10 40 16 14 6 28 10 33 9 4 -1 7 2 7
7 0 7 17 14 57 23 5 1 26 7 48 14 50 16 78 17 70 3z m288 -14 c-3 -11 -43 -16
-43 -5 0 4 -12 5 -26 2 -19 -3 -25 -1 -20 7 9 14 92 11 89 -4z m-21 -33 c-19
-6 -14 -22 7 -22 11 0 23 -4 26 -10 6 -9 -10 -14 -42 -13 -7 1 -13 -8 -13 -18
0 -11 -10 -24 -22 -30 -15 -7 -24 -20 -25 -39 -2 -31 2 -33 49 -30 29 2 59
-26 68 -63 5 -18 13 -22 50 -24 66 -3 110 7 110 24 0 9 17 -2 40 -26 22 -22
40 -43 40 -46 0 -10 58 -56 93 -74 57 -29 227 -194 227 -220 0 -4 7 -15 16
-22 25 -21 106 -149 117 -186 6 -18 14 -33 19 -33 9 0 34 -59 30 -72 -1 -5 3
-8 10 -8 6 0 9 -3 5 -6 -3 -4 1 -23 9 -43 39 -89 46 -132 47 -296 1 -112 -8
-191 -24 -211 -5 -6 -6 -13 -3 -16 5 -6 -53 -161 -80 -213 -9 -16 -16 -36 -16
-42 0 -7 -5 -13 -11 -13 -6 0 -8 -7 -5 -16 4 -10 2 -13 -6 -8 -8 5 -9 2 -5 -9
3 -9 1 -19 -5 -23 -7 -4 -8 -3 -4 4 15 24 -2 11 -19 -14 -9 -15 -12 -23 -5
-19 48 30 -94 -126 -183 -200 -75 -63 -170 -117 -193 -109 -12 4 -15 3 -7 -3
11 -8 -7 -17 -107 -52 -19 -7 -46 -14 -60 -17 -14 -2 -34 -6 -45 -9 -64 -13
-78 -15 -112 -16 -21 0 -63 2 -93 5 -30 3 -77 8 -105 10 -78 8 -98 12 -167 36
-79 27 -219 102 -260 138 -99 87 -142 133 -188 202 -8 13 -24 35 -36 49 -26
33 -94 184 -94 209 0 10 -3 22 -7 26 -4 3 -8 14 -9 24 -3 26 -10 52 -35 133
-25 84 -27 164 -9 284 7 44 13 87 14 95 2 8 5 22 9 30 3 8 13 37 22 63 21 65
75 180 89 189 6 4 7 8 1 8 -7 0 -7 3 0 8 6 4 16 18 24 32 14 25 14 25 -7 6
-25 -22 -118 -205 -114 -223 2 -7 -2 -13 -8 -13 -5 0 -10 -9 -10 -21 0 -12 -6
-35 -14 -52 -8 -18 -18 -45 -22 -62 -4 -16 -8 -33 -9 -37 -2 -5 -3 -15 -4 -23
0 -8 -5 -15 -10 -15 -6 0 -8 9 -6 20 2 11 0 22 -6 25 -5 4 -9 21 -9 40 0 40
-15 54 -25 22 -4 -12 -7 -26 -6 -30 1 -4 1 -18 1 -30 -1 -72 1 -98 14 -152 14
-58 43 -209 52 -270 2 -16 6 -37 7 -45 4 -16 4 -17 32 -95 10 -27 19 -68 21
-89 2 -22 8 -42 14 -46 6 -4 12 -15 14 -24 2 -16 73 -108 88 -114 4 -2 8 -8 8
-12 0 -5 10 -20 23 -33 12 -12 38 -41 58 -62 69 -77 206 -174 289 -204 54 -20
103 -41 122 -51 10 -5 24 -7 33 -4 8 3 15 2 15 -3 0 -4 13 -9 30 -9 16 -1 28
2 25 6 -5 8 -96 36 -107 32 -5 -1 -8 3 -8 9 0 5 -4 7 -10 4 -5 -3 -19 -1 -30
5 -12 6 -29 13 -39 15 -10 2 -40 18 -67 35 -27 18 -42 30 -34 27 45 -15 106
-42 110 -48 5 -6 32 -13 95 -25 16 -3 32 -8 35 -12 3 -4 12 -7 20 -7 8 1 22
-2 31 -6 34 -17 239 -26 310 -14 13 2 42 6 63 10 21 3 51 8 65 11 23 4 22 3
-8 -14 -19 -10 -44 -18 -57 -16 -13 1 -24 -1 -24 -5 0 -4 -32 -7 -71 -8 -39
-1 -76 -6 -82 -12 -16 -16 131 -7 209 13 33 8 83 18 110 22 27 3 51 8 53 9 9
9 -13 25 -27 21 -54 -14 -72 -16 -72 -6 0 6 5 8 10 5 6 -3 10 -2 10 3 0 5 14
12 30 16 66 13 240 107 322 174 48 39 131 128 160 171 18 25 35 48 40 49 4 2
8 8 8 14 0 5 8 22 19 36 10 15 22 38 26 52 4 14 12 28 17 31 5 3 10 12 12 20
1 8 7 23 13 34 11 21 45 129 48 155 3 20 36 102 48 118 5 6 13 12 18 12 11 0
12 -27 2 -32 -18 -8 -40 -65 -36 -93 2 -16 4 -39 4 -50 0 -10 4 -24 9 -30 18
-22 -103 -295 -131 -295 -5 0 -8 -3 -7 -7 4 -13 -23 -56 -56 -92 -94 -103
-230 -226 -248 -226 -5 0 -12 -5 -16 -10 -24 -36 -254 -138 -306 -137 -11 1
-27 -3 -36 -8 -9 -5 -39 -12 -66 -16 -27 -3 -53 -8 -57 -11 -4 -2 -47 -6 -95
-8 -48 -2 -95 -7 -104 -10 -10 -4 -18 -3 -18 3 0 5 -14 8 -30 7 -17 -1 -32 1
-35 5 -3 5 -15 6 -27 2 -11 -3 -19 -1 -16 4 4 5 -13 7 -39 5 -29 -2 -50 2 -61
12 -9 8 -36 18 -59 22 -24 4 -43 11 -43 16 0 5 -13 9 -30 9 -16 0 -30 5 -30
10 0 6 -5 10 -11 10 -6 0 -17 7 -26 15 -8 8 -19 12 -25 9 -5 -3 -19 3 -31 13
-24 21 -79 57 -87 58 -6 0 -83 59 -114 87 -11 10 -26 18 -34 18 -8 0 -12 6 -8
15 3 9 0 15 -9 15 -7 0 -17 9 -20 20 -3 11 -13 20 -21 20 -8 0 -14 6 -13 13 3
25 -1 37 -14 37 -7 0 -21 12 -32 27 -11 15 -30 38 -42 51 -13 14 -20 28 -17
33 3 5 0 9 -5 9 -6 0 -11 6 -11 14 0 7 -9 25 -20 38 -10 14 -16 28 -13 32 3 3
2 6 -3 6 -10 0 -40 68 -36 82 1 4 -8 28 -19 54 -12 26 -23 70 -25 96 -2 27 -6
53 -9 58 -16 25 -26 301 -14 364 5 23 11 52 14 66 7 29 12 54 18 90 6 35 18
60 28 60 4 0 11 16 15 35 3 19 9 35 13 35 4 0 7 10 8 22 1 11 6 24 10 27 4 3
19 26 32 51 14 25 27 47 30 50 4 3 15 19 25 35 21 34 35 50 138 155 65 66 161
140 182 140 4 0 -11 -16 -34 -35 -23 -19 -35 -35 -27 -35 8 0 25 10 39 23 32
28 53 41 108 68 25 12 53 25 63 31 10 5 22 6 26 3 5 -2 11 4 14 15 3 11 12 20
21 20 9 0 16 5 16 10 0 6 12 15 26 21 15 5 24 12 21 16 -4 3 -18 -2 -31 -11
-14 -9 -34 -16 -44 -16 -10 0 -22 -3 -26 -7 -12 -12 -46 -13 -46 -1 0 6 3 9 6
5 3 -3 16 4 29 15 13 11 27 20 32 20 4 0 23 6 42 14 32 13 67 23 101 28 8 1
15 6 15 11 0 6 -22 9 -50 8 -44 -1 -47 0 -25 9 14 6 28 10 33 10 4 -1 7 3 7 9
0 5 4 7 10 4 5 -3 22 1 37 9 27 15 27 15 5 16 -13 0 -36 -7 -51 -15 -16 -8
-31 -12 -33 -9 -5 4 -50 -12 -115 -42 -17 -8 -38 -14 -47 -14 -21 0 -86 -32
-86 -42 0 -5 -4 -6 -10 -3 -5 3 -10 1 -10 -5 0 -6 -4 -9 -8 -6 -5 3 -18 -4
-30 -14 -12 -11 -24 -20 -28 -20 -9 0 -100 -66 -142 -103 -95 -85 -161 -151
-157 -157 2 -3 -7 -19 -20 -34 -13 -15 -26 -23 -29 -18 -2 4 5 20 17 35 12 14
33 41 47 59 34 45 127 137 174 173 22 17 44 35 50 40 28 26 84 64 88 59 3 -2
11 2 18 11 7 8 19 15 27 15 7 0 16 7 19 15 4 8 14 15 23 15 9 0 21 4 27 9 20
20 248 107 299 115 6 1 15 5 21 9 17 10 104 17 104 7 0 -5 15 -4 34 1 18 5 57
8 86 6 28 -1 54 1 56 5 3 5 10 5 17 1 8 -5 8 -8 -1 -11z m-547 -42 c-3 -5 -12
-10 -18 -10 -7 0 -6 4 3 10 19 12 23 12 15 0z m-155 -230 c-24 -15 -36 -11
-14 4 10 8 21 12 24 10 2 -3 -2 -9 -10 -14z m74 -5 c-4 -8 -11 -15 -16 -15 -6
0 -5 6 2 15 7 8 14 15 16 15 2 0 1 -7 -2 -15z m-259 -109 c-42 -42 -79 -76
-83 -76 -3 0 3 9 14 20 111 112 139 138 142 135 2 -2 -30 -38 -73 -79z m86 41
c-10 -9 -11 -8 -5 6 3 10 9 15 12 12 3 -3 0 -11 -7 -18z m-14 -23 c-3 -3 -12
-4 -19 -1 -8 3 -5 6 6 6 11 1 17 -2 13 -5z m-27 -18 c0 -2 -7 -7 -16 -10 -8
-3 -12 -2 -9 4 6 10 25 14 25 6z m2020 -40 c0 4 14 -9 31 -29 17 -21 37 -37
43 -37 6 0 22 -16 36 -34 14 -19 26 -33 28 -32 1 2 56 -50 122 -115 66 -65
120 -116 120 -114 0 2 13 -8 28 -23 15 -15 26 -30 24 -34 -2 -5 2 -8 8 -8 6 0
33 -22 61 -50 27 -27 54 -50 59 -50 6 0 10 -6 10 -13 0 -7 9 -19 20 -27 45
-32 162 -150 158 -159 -1 -6 -59 -70 -128 -142 -155 -164 -169 -179 -305 -324
-60 -65 -128 -137 -150 -160 -22 -24 -74 -80 -115 -125 -41 -45 -93 -101 -116
-126 -22 -24 -46 -44 -53 -44 -7 0 -10 -3 -8 -7 2 -5 -16 -28 -41 -53 -40 -41
-42 -42 -20 -10 12 19 26 37 31 38 4 2 7 8 7 14 0 5 7 16 15 24 8 9 15 12 15
8 0 -4 11 6 25 22 14 16 25 34 25 40 0 5 9 20 19 31 22 23 121 226 125 254 1
4 14 20 29 35 24 24 28 34 23 63 -3 19 -1 40 5 47 6 7 12 37 14 66 1 29 6 88
10 130 9 100 10 245 1 283 -4 17 -9 50 -12 75 -2 25 -11 74 -19 110 -8 36 -17
74 -19 85 -15 74 -75 245 -87 245 -4 0 -11 10 -15 23 -3 12 -13 30 -22 40 -8
9 -11 17 -7 17 4 0 2 8 -7 18 -26 32 -38 68 -25 81 9 9 17 6 35 -14 12 -14 22
-23 22 -19z m-569 -113 c9 -10 19 -25 23 -33 4 -8 -2 -5 -13 8 -11 13 -30 32
-43 43 -19 17 -20 19 -3 10 11 -5 27 -17 36 -28z m113 -156 c21 -32 36 -60 34
-63 -2 -2 -15 14 -29 36 -13 22 -27 40 -31 40 -5 0 -8 6 -8 14 0 7 -9 25 -20
39 -11 14 -20 28 -20 32 0 11 31 -31 74 -98z m-1822 51 c-7 -7 -12 -8 -12 -2
0 14 12 26 19 19 2 -3 -1 -11 -7 -17z m1911 -210 c8 -20 13 -39 10 -41 -2 -3
5 -24 17 -47 12 -23 20 -44 17 -46 -2 -2 -14 20 -26 49 -13 28 -29 63 -36 77
-7 14 -10 31 -7 39 3 8 0 11 -7 7 -6 -4 -11 -3 -11 3 0 5 -3 18 -7 28 -11 32
34 -30 50 -69z m-1882 -341 c-10 -9 -11 -8 -5 6 3 10 9 15 12 12 3 -3 0 -11
-7 -18z m-121 -1023 c0 -8 -5 -12 -10 -9 -6 4 -8 11 -5 16 9 14 15 11 15 -7z
m60 -52 c13 -11 11 -12 -10 -4 -14 5 -26 18 -28 28 -2 17 -1 17 11 4 7 -8 19
-21 27 -28z m2050 34 c0 -2 -7 -9 -15 -16 -13 -11 -14 -10 -9 4 5 14 24 23 24
12z m-650 -130 c0 -2 -7 -7 -16 -10 -8 -3 -12 -2 -9 4 6 10 25 14 25 6z"/>
<path d="M1878 3183 c7 -3 16 -2 19 1 4 3 -2 6 -13 5 -11 0 -14 -3 -6 -6z"/>
<path d="M1800 3060 c0 -5 5 -10 11 -10 5 0 7 5 4 10 -3 6 -8 10 -11 10 -2 0
-4 -4 -4 -10z"/>
<path d="M2410 3049 c0 -5 5 -7 10 -4 6 3 10 8 10 11 0 2 -4 4 -10 4 -5 0 -10
-5 -10 -11z"/>
<path d="M1760 3030 c0 -5 7 -7 15 -4 8 4 15 8 15 10 0 2 -7 4 -15 4 -8 0 -15
-4 -15 -10z"/>
<path d="M1709 2989 l-24 -20 30 17 c39 24 40 24 28 24 -6 0 -21 -9 -34 -21z"/>
<path d="M1670 2970 c0 -5 -8 -10 -18 -10 -9 0 -28 -10 -42 -22 -14 -13 -44
-40 -68 -60 -23 -21 -39 -38 -34 -38 10 0 51 29 82 58 14 12 40 32 58 43 28
18 43 39 27 39 -3 0 -5 -4 -5 -10z"/>
<path d="M1403 2733 c-4 -10 -11 -21 -17 -25 -6 -4 -7 -10 -3 -14 6 -7 46 34
47 49 0 14 -21 7 -27 -10z"/>
<path d="M1160 2575 c0 -8 2 -15 4 -15 2 0 6 7 10 15 3 8 1 15 -4 15 -6 0 -10
-7 -10 -15z"/>
<path d="M1121 2463 c-10 -26 -10 -27 4 -9 8 11 15 23 15 28 0 15 -7 8 -19
-19z"/>
<path d="M1047 2152 c-5 -7 -10 -74 -8 -99 1 -7 4 -13 9 -13 4 0 8 27 8 60 2
59 0 68 -9 52z"/>
<path d="M1046 1957 c3 -10 9 -15 12 -12 3 3 0 11 -7 18 -10 9 -11 8 -5 -6z"/>
<path d="M1054 1904 c2 -16 4 -39 5 -51 0 -13 5 -23 10 -23 10 0 3 82 -9 94
-5 5 -8 -3 -6 -20z"/>
<path d="M1140 1814 c0 -8 5 -12 10 -9 6 3 10 10 10 16 0 5 -4 9 -10 9 -5 0
-10 -7 -10 -16z"/>
<path d="M1070 1803 c0 -5 5 -15 10 -23 8 -12 10 -11 10 8 0 12 -4 22 -10 22
-5 0 -10 -3 -10 -7z"/>
<path d="M1160 1784 c0 -20 22 -74 31 -74 5 0 9 3 9 8 -1 13 -39 77 -40 66z"/>
<path d="M1090 1741 c0 -6 4 -13 10 -16 6 -3 7 1 4 9 -7 18 -14 21 -14 7z"/>
<path d="M1197 1689 c7 -7 15 -10 18 -7 3 3 -2 9 -12 12 -14 6 -15 5 -6 -5z"/>
<path d="M1107 1660 c3 -11 8 -20 12 -20 4 0 15 -14 25 -31 10 -17 20 -28 22
-26 3 2 -5 21 -16 40 -12 20 -19 41 -15 47 3 5 -2 10 -13 10 -15 0 -19 -5 -15
-20z"/>
<path d="M1200 1666 c0 -2 7 -6 15 -10 8 -3 15 -1 15 4 0 6 -7 10 -15 10 -8 0
-15 -2 -15 -4z"/>
<path d="M1160 1561 c0 -5 8 -15 18 -22 15 -12 16 -12 5 2 -7 9 -10 19 -6 22
3 4 1 7 -5 7 -7 0 -12 -4 -12 -9z"/>
<path d="M2950 1392 c-15 -17 -41 -62 -36 -62 2 0 16 16 31 36 28 37 31 54 5
26z"/>
<path d="M1300 1371 c0 -6 4 -13 10 -16 6 -3 7 1 4 9 -7 18 -14 21 -14 7z"/>
<path d="M2881 1313 c-7 -8 -11 -16 -8 -19 2 -2 10 2 17 11 17 20 9 27 -9 8z"/>
<path d="M2824 1270 c-12 -5 -25 -13 -29 -19 -10 -18 18 -12 45 9 26 21 20 25
-16 10z"/>
<path d="M2717 1213 c-33 -17 -30 -29 5 -17 13 4 26 7 30 6 4 -1 5 5 2 13 -4
8 -7 15 -8 14 0 -1 -14 -8 -29 -16z"/>
<path d="M2679 1176 c-2 -3 -17 -7 -31 -10 -15 -2 -40 -11 -55 -20 -16 -8 -36
-17 -45 -20 -21 -6 -24 -26 -5 -26 7 0 21 6 32 13 11 7 30 14 42 14 26 2 105
53 82 53 -9 0 -18 -2 -20 -4z"/>
<path d="M1990 1049 c0 -7 3 -9 6 -6 4 3 14 2 23 -3 10 -5 23 -5 32 1 12 7 12
9 -1 9 -8 0 -25 3 -37 6 -15 4 -23 2 -23 -7z"/>
<path d="M2076 1042 c-3 -5 10 -9 29 -10 19 -1 35 3 35 8 0 12 -57 13 -64 2z"/>
<path d="M1915 4040 c-3 -6 1 -7 9 -4 18 7 21 14 7 14 -6 0 -13 -4 -16 -10z"/>
<path d="M1881 4004 c-7 -8 -11 -17 -9 -20 3 -2 13 5 23 16 10 11 14 20 9 20
-5 -1 -15 -8 -23 -16z"/>
<path d="M2630 3582 c0 -5 7 -9 15 -9 8 0 15 4 15 9 0 4 -7 8 -15 8 -8 0 -15
-4 -15 -8z"/>
<path d="M3270 3180 c0 -5 7 -10 15 -10 8 0 15 5 15 10 0 6 -7 10 -15 10 -8 0
-15 -4 -15 -10z"/>
<path d="M1950 242 c0 -11 70 -75 75 -70 2 2 -14 21 -35 41 -22 20 -40 33 -40
29z"/>
<path d="M2286 173 c-6 -14 -5 -15 5 -6 7 7 10 15 7 18 -3 3 -9 -2 -12 -12z"/>
<path d="M2236 125 c-9 -26 -7 -32 5 -12 6 10 9 21 6 23 -2 3 -7 -2 -11 -11z"/>
</g>
</svg>
